<svg xmlns="http://www.w3.org/2000/svg" viewBox="0 0 64 64" fill="none">
  <rect width="64" height="64" rx="16" fill="url(#grad)"/>
  <defs><linearGradient id="grad" x1="0" y1="0" x2="64" y2="64"><stop stop-color="#7E22CE"/><stop offset="1" stop-color="#A855F7"/></linearGradient></defs>
  <path d="M18 38V28a2 2 0 012-2h24a2 2 0 012 2v14a2 2 0 01-2 2H20a2 2 0 01-2-2v-4z" stroke="#fff" stroke-width="2.5" stroke-linecap="round" stroke-linejoin="round"/>
  <path d="M18 34h-2a2 2 0 01-2-2v-8a2 2 0 012-2h20a2 2 0 012 2v2" stroke="#fff" stroke-width="2.5" stroke-linecap="round" stroke-linejoin="round"/>
  <circle cx="40" cy="35" r="3" fill="#fff"/>
</svg>
